# xmcd
#
# Track frame offsets:
#	150
#	17827
#	36660
#	48667
#	61850
#	74182
#	90307
#	106397
#	119980
#	132035
#	150307
#	168657
#	183565
#	196627
#	218557
#	237792
#	249657
#	266122
#	279307
#	290462
#	310595
#	323810
#
# Disc length: 4593
#
# Revision: 2
# Processed by: cddbd v1.5.1PL0 Copyright (c) Steve Scherf et al.
# Submitted via: dBpowerAMP V4.0
# Normalized: r0:TDELIM( - ),TSWAP
#
DISCID=4611ef16
DTITLE=Various Artist - First Ladies Of Country [CD1)
DYEAR=2004
DGENRE=Country
TTITLE0=Shania Twain - Man! I Feel Like A Woman!
TTITLE1=Nanci Griffith - From A Distance
TTITLE2=Tammy Wynette - Stand By Your MAn
TTITLE3=Crystal Gayle - Talking In Your Sleep
TTITLE4=Patsy Cline - Crazy
TTITLE5=Billy Jo Spears - Blanket On The Ground
TTITLE6=Rita Coolidge - We're All Alone
TTITLE7=Charly McClain - Make The Workd Go Away
TTITLE8=Marie Osmond - Paper Roses
TTITLE9=Mary Chapin Carpenter - He Thinks He'll Keep Her
TTITLE10=Reba McEntire - Just A Little Love
TTITLE11=Rosanne Cash - Seven Year Ache
TTITLE12=Shelby Lynne - Your Lies
TTITLE13=Wynonna - To Be Loved By You
TTITLE14=Lucinda Williams - World Without Tears
TTITLE15=Skeeter Davis - To The End Of The World
TTITLE16=Emmylou Harris - Love Hurts
TTITLE17=Lynn Anderson - Rose Garden
TTITLE18=Dolly Parton (With The Christ Church Choir) - Put A Little Love In Your Heart
TTITLE19=Meredith Brooks - Careful What You Wish For
TTITLE20=Jennifer Warnes - Right Time Of The Night
TTITLE21=KD Lang - Constant Craving
EXTD=
EXTT0=
EXTT1=
EXTT2=
EXTT3=
EXTT4=
EXTT5=
EXTT6=
EXTT7=
EXTT8=
EXTT9=
EXTT10=
EXTT11=
EXTT12=
EXTT13=
EXTT14=
EXTT15=
EXTT16=
EXTT17=
EXTT18=
EXTT19=
EXTT20=
EXTT21=
PLAYORDER=
